<svg xmlns="http://www.w3.org/2000/svg" width="17.041" height="17.04" viewBox="0 0 17.041 17.04">
  <g id="call_1_" data-name="call (1)" transform="translate(-1 -1.018)">
    <g id="Group_110" data-name="Group 110" transform="translate(1 1.018)">
      <g id="Group_109" data-name="Group 109" transform="translate(0 0)">
        <path id="Path_44" data-name="Path 44" d="M17.594,14.163l-3.449-2.3a1.007,1.007,0,0,0-1.348.219l-1,1.292a.429.429,0,0,1-.551.116l-.191-.105A11.55,11.55,0,0,1,8.04,11.02,11.6,11.6,0,0,1,5.676,8.01l-.1-.191a.43.43,0,0,1,.114-.553l1.291-1a1.007,1.007,0,0,0,.219-1.348l-2.3-3.449a1,1,0,0,0-1.35-.3L2.1,2.028a2.034,2.034,0,0,0-.928,1.2C.655,5.124,1.046,8.39,5.857,13.2c3.827,3.827,6.676,4.856,8.634,4.856a5.031,5.031,0,0,0,1.335-.174,2.033,2.033,0,0,0,1.2-.928l.867-1.441A1,1,0,0,0,17.594,14.163Zm-.186,1.059-.865,1.442a1.468,1.468,0,0,1-.866.671c-1.747.48-4.8.082-9.418-4.536S1.243,5.129,1.723,3.382a1.47,1.47,0,0,1,.672-.867l1.442-.865a.434.434,0,0,1,.586.132L5.672,3.657,6.721,5.23a.437.437,0,0,1-.095.585l-1.291,1a.994.994,0,0,0-.263,1.276l.1.186a12.047,12.047,0,0,0,2.461,3.141,12.059,12.059,0,0,0,3.14,2.461l.187.1a.994.994,0,0,0,1.276-.263l1-1.291a.437.437,0,0,1,.585-.095l3.449,2.3A.434.434,0,0,1,17.408,15.223Z" transform="translate(-1 -1.018)" fill="#fd8b01"/>
        <path id="Path_45" data-name="Path 45" d="M282.912,69.892a4.833,4.833,0,0,1,4.827,4.827.284.284,0,0,0,.568,0,5.4,5.4,0,0,0-5.4-5.4.284.284,0,1,0,0,.568Z" transform="translate(-273.256 -67.051)" fill="#fd8b01"/>
        <path id="Path_46" data-name="Path 46" d="M282.912,121.092a3.127,3.127,0,0,1,3.124,3.124.284.284,0,1,0,.568,0,3.7,3.7,0,0,0-3.692-3.692.284.284,0,1,0,0,.568Z" transform="translate(-273.256 -116.547)" fill="#fd8b01"/>
        <path id="Path_47" data-name="Path 47" d="M282.912,172.292a1.422,1.422,0,0,1,1.42,1.42.284.284,0,1,0,.568,0,1.99,1.99,0,0,0-1.988-1.988.284.284,0,1,0,0,.568Z" transform="translate(-273.256 -166.043)" fill="#fd8b01"/>
      </g>
    </g>
  </g>
</svg>
