<svg xmlns="http://www.w3.org/2000/svg" width="17.098" height="13.89" viewBox="0 0 17.098 13.89">
  <path id="television_1_" data-name="television (1)" d="M16.3,6H.8a.8.8,0,0,0-.8.8V16.955a.8.8,0,0,0,.8.8H5.346v.8H4.006a.8.8,0,0,0-.8.8v.267a.267.267,0,0,0,.267.267H13.626a.267.267,0,0,0,.267-.267v-.267a.8.8,0,0,0-.8-.8H11.764v-.8H16.3a.8.8,0,0,0,.8-.8V6.8a.8.8,0,0,0-.8-.8ZM.8,6.537H16.3a.267.267,0,0,1,.267.267v9.349H.534V6.8A.267.267,0,0,1,.8,6.537Zm3.2,12.554h9.086a.267.267,0,0,1,.267.267H3.738A.267.267,0,0,1,4.006,19.091Zm7.224-.534H5.881v-.8h5.349ZM16.3,17.222H.8a.267.267,0,0,1-.267-.267v-.267H8.555a.265.265,0,0,0-.26.266.268.268,0,1,0,.274-.266h7.995v.267A.267.267,0,0,1,16.3,17.222Z" transform="translate(0 -6.003)"/>
</svg>
