<svg id="Group_111" data-name="Group 111" xmlns="http://www.w3.org/2000/svg" width="18.667" height="14" viewBox="0 0 18.667 14">
  <path id="Path_48" data-name="Path 48" d="M17.111,64H1.556A1.557,1.557,0,0,0,0,65.556V76.444A1.557,1.557,0,0,0,1.556,78H17.111a1.557,1.557,0,0,0,1.556-1.556V65.556A1.557,1.557,0,0,0,17.111,64Zm-15.556.778H17.111a.74.74,0,0,1,.162.033c-1.347,1.233-5.812,5.318-7.375,6.726a.78.78,0,0,1-1.129,0c-1.563-1.408-6.028-5.493-7.375-6.725A.743.743,0,0,1,1.556,64.778ZM.778,76.444V65.556a.751.751,0,0,1,.044-.215c1.031.943,4.147,3.794,6.167,5.631C4.974,72.7,1.858,75.656.819,76.647A.749.749,0,0,1,.778,76.444Zm16.333.778H1.556a.744.744,0,0,1-.175-.036c1.074-1.023,4.21-4,6.189-5.688l.679.615a1.553,1.553,0,0,0,2.17,0l.68-.615c1.979,1.692,5.115,4.664,6.189,5.688A.743.743,0,0,1,17.111,77.222Zm.778-.778a.751.751,0,0,1-.041.2c-1.039-.991-4.156-3.946-6.169-5.675,2.02-1.837,5.136-4.687,6.167-5.631a.752.752,0,0,1,.044.215Z" transform="translate(0 -64)" fill="#fd8b01"/>
</svg>
