<svg xmlns="http://www.w3.org/2000/svg" width="18.852" height="18.424" viewBox="0 0 18.852 18.424">
  <g id="joystick" transform="translate(-2 -2.791)">
    <path id="Path_60" data-name="Path 60" d="M17.95,34.878a2.641,2.641,0,0,1-2.44-1.66l-1.087-2.752a.189.189,0,0,0-.177-.12H8.6a.189.189,0,0,0-.177.121L7.339,33.217A2.639,2.639,0,0,1,4.9,34.878a2.69,2.69,0,0,1-.439-.039,2.636,2.636,0,0,1-2.181-2.482L2.007,25.84a.273.273,0,0,1,0-.036,4.066,4.066,0,0,1,4.212-4.312H16.641a4.1,4.1,0,0,1,4.156,3.4,4.063,4.063,0,0,1,.047.912.273.273,0,0,1,0,.036l-.272,6.517a2.635,2.635,0,0,1-2.181,2.481A2.678,2.678,0,0,1,17.95,34.878ZM8.6,29.806h5.644a.725.725,0,0,1,.679.461l1.087,2.752a2.1,2.1,0,0,0,1.939,1.32,2.154,2.154,0,0,0,.35-.031,2.094,2.094,0,0,0,1.733-1.972l.269-6.479a.264.264,0,0,1,0-.046,3.528,3.528,0,0,0-3.655-3.78H6.21a3.528,3.528,0,0,0-3.662,3.781.25.25,0,0,1,0,.047l.269,6.477a2.094,2.094,0,0,0,1.734,1.972,2.131,2.131,0,0,0,.35.031A2.1,2.1,0,0,0,6.84,33.02l1.085-2.752a.725.725,0,0,1,.679-.461Z" transform="translate(0 -13.663)"/>
    <path id="Path_61" data-name="Path 61" d="M18.069,36.017a.269.269,0,0,1-.269-.269V32.533a.269.269,0,0,1,.539,0v3.214A.269.269,0,0,1,18.069,36.017Z" transform="translate(-11.545 -21.536)"/>
    <path id="Path_62" data-name="Path 62" d="M15.311,38.771H12.1a.269.269,0,1,1,0-.539h3.214a.269.269,0,1,1,0,.539Z" transform="translate(-7.181 -25.897)"/>
    <path id="Path_63" data-name="Path 63" d="M53.806,33.309h-.327a.269.269,0,0,1,0-.539h.327a.269.269,0,0,1,0,.539Z" transform="translate(-37.419 -21.906)"/>
    <path id="Path_64" data-name="Path 64" d="M53.806,44.232h-.327a.269.269,0,0,1,0-.539h.327a.269.269,0,0,1,0,.539Z" transform="translate(-37.419 -29.887)"/>
    <path id="Path_65" data-name="Path 65" d="M59.547,38.491a.269.269,0,0,1-.269-.269v-.327a.269.269,0,0,1,.539,0v.327A.269.269,0,0,1,59.547,38.491Z" transform="translate(-41.853 -25.453)"/>
    <path id="Path_66" data-name="Path 66" d="M48.624,38.491a.269.269,0,0,1-.269-.269v-.327a.269.269,0,0,1,.539,0v.327A.269.269,0,0,1,48.624,38.491Z" transform="translate(-33.872 -25.453)"/>
    <path id="Path_67" data-name="Path 67" d="M30.734,17.391H26.121a.269.269,0,0,1-.269-.269V16.045a.906.906,0,0,1,.9-.9H30.1a.906.906,0,0,1,.9.9v1.077A.269.269,0,0,1,30.734,17.391Zm-4.343-.539h4.074v-.808a.367.367,0,0,0-.366-.366H26.757a.367.367,0,0,0-.366.366Z" transform="translate(-17.429 -9.023)"/>
    <path id="Path_68" data-name="Path 68" d="M34.685,6.655a.269.269,0,0,1-.269-.269,3.378,3.378,0,0,1,2.6-3.3L38.225,2.8a.269.269,0,1,1,.126.524l-1.212.291a2.841,2.841,0,0,0-2.185,2.771.269.269,0,0,1-.269.27Z" transform="translate(-23.687)"/>
  </g>
</svg>
