<svg id="xk5Qpn" xmlns="http://www.w3.org/2000/svg" width="179.705" height="43.514" viewBox="0 0 179.705 43.514">
  <g id="Group_11" data-name="Group 11">
    <path id="Path_10" data-name="Path 10" d="M-292.283-343.431c1.432-2.771,2.792-5.35,4.1-7.958.361-.722.8-.485,1.321-.327,3.119.936,6.229,1.911,9.37,2.765a25.432,25.432,0,0,0,15.067-.175,16.634,16.634,0,0,0,4.435-2.349c1.819-1.333,1.588-3.244-.342-4.382A10.638,10.638,0,0,0-263.9-357c-4.211-.01-7.458,2.057-10.288,4.945a1.714,1.714,0,0,1-1.933.555c-2.386-.716-4.805-1.319-7.208-1.978a2.613,2.613,0,0,1-.552-.342,22.564,22.564,0,0,1,5.1-7.212c6.7-6.158,14.466-7.747,22.938-4.553,4.738,1.786,8.2,5.149,9.047,10.476.641,4.05-.777,7.459-3.577,10.364a20.078,20.078,0,0,1-12.107,5.848c-2.615.366-5.264.485-7.9.727a11.5,11.5,0,0,0-2.492.458,11.856,11.856,0,0,0,9.394,4.138c3.749-.065,6.735-1.85,9.507-3.935l7.265,7.231a8.756,8.756,0,0,0-1.23.727c-7.236,5.932-15.408,7.4-24.087,4.259a20.516,20.516,0,0,1-12.97-13.743,2.8,2.8,0,0,0-1.823-1.987C-288.626-341.734-290.386-342.585-292.283-343.431Z" transform="translate(292.283 367.189)" fill="#fd8b01"/>
    <path id="Path_11" data-name="Path 11" d="M286.165-325.863c0-1.51,0-2.839,0-4.167,0-.769-.027-1.541.034-2.306a4.483,4.483,0,0,1,4.991-4.43,12.775,12.775,0,0,1,2.154.34,2.919,2.919,0,0,1,2.352,2.533,12.153,12.153,0,0,1,.218,2.174c.016,6.27.028,12.54-.009,18.81a13.343,13.343,0,0,1-.4,3.3,4.9,4.9,0,0,1-7.827,2.225c-.2-.177-.374-.38-.612-.623a12.394,12.394,0,0,1-5.809,1.953c-3.439.3-6.134-.971-7.636-4.019a14.28,14.28,0,0,1,.422-14.224c2.18-3.672,6.438-4.5,10.539-2.412C285.045-326.469,285.5-326.216,286.165-325.863Zm.065,9.115h0c0-1.229.026-2.459-.009-3.687a1.842,1.842,0,0,0-1.441-1.734,1.554,1.554,0,0,0-1.867.756c-1.566,2.1-1.672,6.891-.195,9.015a1.676,1.676,0,0,0,2.067.8,1.791,1.791,0,0,0,1.453-1.815C286.213-314.52,286.23-315.634,286.23-316.748Z" transform="translate(-141.729 343.791)"/>
    <path id="Path_12" data-name="Path 12" d="M-63.015-294.854a15.463,15.463,0,0,1,8.4-2.161,4.834,4.834,0,0,1,4.96,3.542c1.049,2.961.969,6.054.878,9.124a40.1,40.1,0,0,1-.525,5.495,3.4,3.4,0,0,1-3.6,3.069c-5.109.276-5.675-1.591-5.571-5.17.068-2.343.016-4.691-.037-7.035-.031-1.363-.586-2.023-1.629-2.143a2.041,2.041,0,0,0-2.264,1.7,9.112,9.112,0,0,0-.243,2.164c-.03,2.076.007,4.153-.015,6.229-.031,2.93-1.211,4.141-4.106,4.262-4.173.175-5.383-.992-5.384-5.2q0-5.306,0-10.613c0-2.662.9-4.321,2.7-5.014A5.784,5.784,0,0,1-63.015-294.854Z" transform="translate(122.95 313.21)"/>
    <path id="Path_13" data-name="Path 13" d="M399.859-291.05c-1.893-.1-3.541-.11-5.167-.3a2.435,2.435,0,0,1-2.457-2.655c-.03-1.84.542-2.608,2.407-2.649,5.034-.111,10.073-.209,15.105-.1,3.25.069,4.692,3.619,2.6,6.381-1.527,2.015-3.335,3.818-5.032,5.7-1,1.109-2.026,2.192-3.257,3.52h3.989c.846,0,1.694-.045,2.536.012a2.947,2.947,0,0,1,2.2,4.532,1.79,1.79,0,0,1-1.014.678,13.318,13.318,0,0,1-2.62.31c-4.307.03-8.615-.028-12.921.034-1.881.027-3.569-.4-4.354-2.172a5.061,5.061,0,0,1,.643-5.353c1.363-1.708,2.938-3.246,4.429-4.851C397.853-288.945,398.78-289.909,399.859-291.05Z" transform="translate(-233.621 313.048)"/>
    <path id="Path_14" data-name="Path 14" d="M53.086-286.247a3.931,3.931,0,0,0,4.189,2.925,41.076,41.076,0,0,0,5.612-1.039c.369-.076.7-.414,1.061-.422.614-.014,1.462-.076,1.787.275a1.987,1.987,0,0,1,.333,1.842,15.158,15.158,0,0,1-3.111,3.9c-4.583,3.57-12.716,2.83-16.965-1.169-4.087-3.846-4.074-13.583,3.307-16.946a16.362,16.362,0,0,1,12.467-.4,5.688,5.688,0,0,1,3.749,3.946c1.027,3.579-.951,6.478-4.759,6.816-2.329.207-4.682.145-7.024.207C53.543-286.306,53.358-286.275,53.086-286.247Zm-.3-3c.956,0,1.833-.06,2.7.015a1.4,1.4,0,0,0,1.69-1.427,6.613,6.613,0,0,0-.147-2.382c-.145-.5-.674-1.18-1.109-1.243a2.148,2.148,0,0,0-1.64.708A7.183,7.183,0,0,0,52.782-289.243Z" transform="translate(34.178 314.213)"/>
    <path id="Path_15" data-name="Path 15" d="M167.182-286.312a4.129,4.129,0,0,0,4.167,3.033,12.783,12.783,0,0,0,5.932-1.184c.172-.085.353-.231.524-.223.72.034,1.706-.141,2.081.251a2.281,2.281,0,0,1,.169,2.078,10.134,10.134,0,0,1-2.077,2.856c-4.71,4.533-14.423,3.876-18.548-1.2-4.482-5.513-1.66-14.435,5.336-16.753a16.556,16.556,0,0,1,10.429-.04,8.219,8.219,0,0,1,3.305,2.158,5.249,5.249,0,0,1,1.058,5.6c-.744,2.063-2.526,2.948-4.563,3.209-1.556.2-3.142.165-4.716.207C169.285-286.29,168.289-286.312,167.182-286.312Zm-.667-2.927c1.364,0,2.312-.036,3.257.011a1.229,1.229,0,0,0,1.439-1.157,8.025,8.025,0,0,0-.058-2.616,1.873,1.873,0,0,0-1.1-1.264,1.9,1.9,0,0,0-1.626.677A45.8,45.8,0,0,0,166.516-289.239Z" transform="translate(-53.526 314.207)"/>
  </g>
</svg>
