<svg id="motorcycle" xmlns="http://www.w3.org/2000/svg" width="20.693" height="14.55" viewBox="0 0 20.693 14.55">
  <path id="Path_50" data-name="Path 50" d="M17.662,8.487a2.992,2.992,0,0,0-1.373.344l-.819-.974a4.044,4.044,0,0,1,1.172-.473,4.936,4.936,0,0,1,1.024-.109,1.731,1.731,0,0,0,1.229-.5,1.9,1.9,0,0,0,.546-1.386A5.43,5.43,0,0,0,14.063,0h-.685a.606.606,0,1,0,0,1.212h.685a4.094,4.094,0,0,1,.527.054V2.437a3.006,3.006,0,0,0-1,.287l-.013-.012a3.023,3.023,0,0,0-1.237,1.063l-1.38,2.07a.608.608,0,0,1-.413.263A3.822,3.822,0,0,0,7.7,8.221a4.822,4.822,0,0,1,.828,2.691H7.275a3.691,3.691,0,1,0-.223,1.212h5.72a.606.606,0,0,0,.606-.606A4.548,4.548,0,0,1,13.5,10.5a4.137,4.137,0,0,1,1.027-1.879l.818.972a3,3,0,0,0-.712,1.928,3.031,3.031,0,1,0,3.031-3.031ZM3.637,13.337a2.425,2.425,0,1,1,2.425-2.425H4.244a.607.607,0,0,1-.606-.606.606.606,0,1,0-1.212,0,1.821,1.821,0,0,0,1.819,1.819H5.725A2.417,2.417,0,0,1,3.637,13.337Zm14.024,0a1.821,1.821,0,0,1-1.819-1.819,1.8,1.8,0,0,1,.278-.955L17.188,11.9a.607.607,0,1,0,.947-.758L17.069,9.807a1.8,1.8,0,0,1,.592-.107,1.819,1.819,0,1,1,0,3.637Zm0,0" fill="#fff"/>
  <path id="Path_51" data-name="Path 51" d="M172.034,33.448l1.039-1.558a4.225,4.225,0,0,1,1.262-1.217,4.2,4.2,0,0,0-2.25-.672,4.255,4.255,0,0,0-3.534,1.9l.97.582A8.09,8.09,0,0,0,172.034,33.448Zm0,0" transform="translate(-161.739 -28.788)" fill="#fff"/>
  <path id="Path_52" data-name="Path 52" d="M7.158,62.31,3.268,60H.606A.606.606,0,0,0,0,60.606a3.035,3.035,0,0,0,3.031,3.031,5.12,5.12,0,0,1,3.818,1.2c.005-.01.005-.021.011-.03a5.024,5.024,0,0,1,1.9-1.755A9.294,9.294,0,0,1,7.158,62.31Zm0,0" transform="translate(0 -57.575)" fill="#fff"/>
</svg>
