<svg xmlns="http://www.w3.org/2000/svg" width="15.997" height="11.248" viewBox="0 0 15.997 11.248">
  <path id="motorcycle_1_" data-name="motorcycle (1)" d="M13.654,6.561a2.326,2.326,0,0,0-1.068.258l-.6-.748a3.132,3.132,0,0,1,.908-.362,3.468,3.468,0,0,1,.792-.085H13.7A1.387,1.387,0,0,0,15.06,4.163,4.165,4.165,0,0,0,10.9,0h-.53a.469.469,0,0,0,0,.937h.53a3.233,3.233,0,0,1,.408.026v.921a2.338,2.338,0,0,0-.781.211A3.357,3.357,0,0,0,8,.937,3.29,3.29,0,0,0,5.264,2.406L4.49,1.941a.469.469,0,0,0-.241-.067H.469A.469.469,0,0,0,0,2.343,2.346,2.346,0,0,0,2.343,4.687,3.977,3.977,0,0,1,3.4,4.732a3.792,3.792,0,0,1,3.2,3.7H5.624a2.812,2.812,0,1,0-.161.937H9.9a.469.469,0,0,0,.469-.469,3.482,3.482,0,0,1,.092-.79,3.2,3.2,0,0,1,.791-1.457l.6.748a2.342,2.342,0,1,0,1.8-.844ZM2.812,10.311A1.875,1.875,0,1,1,4.687,8.436H3.281a.469.469,0,0,1-.469-.469.469.469,0,1,0-.937,0,1.4,1.4,0,0,0,1.406,1.4H4.434A1.881,1.881,0,0,1,2.812,10.311ZM8,1.875a2.413,2.413,0,0,1,1.777.782,2.374,2.374,0,0,0-.2.259l-.566.829a6.265,6.265,0,0,1-2.94-.857A2.35,2.35,0,0,1,8,1.875ZM3.541,3.812a4.4,4.4,0,0,0-1.2-.057,1.414,1.414,0,0,1-1.326-.944h3.1l1.414.848A7.2,7.2,0,0,0,8.4,4.637l-.041.06a2.935,2.935,0,0,0-1.837.854A4.741,4.741,0,0,0,3.541,3.812ZM9.461,8.436H7.53a4.63,4.63,0,0,0-.487-2.063,2.009,2.009,0,0,1,1.571-.749A.469.469,0,0,0,9,5.42L10.35,3.442l0,0a1.4,1.4,0,0,1,1.17-.626h.256a.469.469,0,0,0,.469-.469V1.233a3.232,3.232,0,0,1,1.875,2.988.451.451,0,0,1-.426.466,4.414,4.414,0,0,0-1.007.108A4.2,4.2,0,0,0,9.461,8.436Zm4.192,1.875A1.405,1.405,0,0,1,12.46,8.163L13.288,9.2a.469.469,0,0,0,.732-.585l-.828-1.035a1.406,1.406,0,1,1,.462,2.734Zm0,0" fill="#100c0c"/>
</svg>
