<svg xmlns="http://www.w3.org/2000/svg" width="9.581" height="16.14" viewBox="0 0 9.581 16.14">
  <g id="refrigerator" transform="translate(-106.999 -5)">
    <path id="Path_80" data-name="Path 80" d="M115.117,5h-6.654A1.468,1.468,0,0,0,107,6.479V18.836a1.447,1.447,0,0,0,.836,1.343v.769a.2.2,0,0,0,.2.193h1.229a.18.18,0,0,0,.177-.193V20.3h4.694v.643a.18.18,0,0,0,.177.193h1.229a.2.2,0,0,0,.2-.193v-.769a1.447,1.447,0,0,0,.836-1.343V6.479A1.468,1.468,0,0,0,115.117,5Zm-6.06,15.755h-.836V20.3a1.69,1.69,0,0,0,.242.009h.594Zm.322-.836h-.611v-.09a.761.761,0,0,1,.611-.744Zm1.093,0h-.707v-.836h.707Zm1.125,0h-.739v-.836h.739Zm1.125,0h-.74v-.836h.74Zm1.093,0h-.707v-.836h.707Zm.386,0v-.84a.777.777,0,0,1,.643.75v.09Zm1.157.836h-.836V20.3h.594a1.69,1.69,0,0,0,.242-.009Zm.836-1.919a1.072,1.072,0,0,1-.965,1.077v-.084a1.137,1.137,0,0,0-1.15-1.132h-4.55a1.137,1.137,0,0,0-1.149,1.132v.087a1.072,1.072,0,0,1-1-1.08V9.855h.675v1a.707.707,0,1,0,1.415,0v-1h6.72Zm-7.749-7.983V8.472a.322.322,0,1,1,.643,0v2.38a.322.322,0,1,1-.643,0Zm7.749-1.384h-6.72v-1a.707.707,0,1,0-1.415,0v1h-.675V6.479a1.081,1.081,0,0,1,1.078-1.093h6.654a1.081,1.081,0,0,1,1.078,1.093Z" transform="translate(0 0)"/>
    <path id="Path_81" data-name="Path 81" d="M296.379,92h-2.058a.322.322,0,0,0-.322.322V92.9a.321.321,0,0,0,.322.322h2.058a.322.322,0,0,0,.322-.322v-.579A.322.322,0,0,0,296.379,92Zm-.1.836h-1.9v-.45h1.9Z" transform="translate(-180.989 -84.203)"/>
    <path id="Path_82" data-name="Path 82" d="M130.193,238.106a.193.193,0,0,0-.193.193v2.437a.193.193,0,0,0,.386,0V238.3A.193.193,0,0,0,130.193,238.106Z" transform="translate(-22.262 -225.611)"/>
    <path id="Path_83" data-name="Path 83" d="M130.193,212.892a.193.193,0,0,0-.193.193v.155a.193.193,0,0,0,.386,0v-.155A.193.193,0,0,0,130.193,212.892Z" transform="translate(-22.262 -201.208)"/>
  </g>
</svg>
