<svg xmlns="http://www.w3.org/2000/svg" width="7.121" height="12.984" viewBox="0 0 7.121 12.984">
  <g id="smartphone_3_" data-name="smartphone (3)" transform="translate(-113.692)">
    <g id="Group_137" data-name="Group 137" transform="translate(113.692)">
      <path id="Path_53" data-name="Path 53" d="M119.458,0h-4.386a1.378,1.378,0,0,0-1.379,1.354V11.632a1.365,1.365,0,0,0,1.366,1.352l4.393,0a1.357,1.357,0,0,0,1.356-1.352l.006-10.274A1.354,1.354,0,0,0,119.458,0Zm-2.827.812H117.9a.2.2,0,0,1,0,.406h-1.273a.2.2,0,0,1,0-.406Zm-.765.065a.21.21,0,0,1,.287,0,.2.2,0,0,1-.143.347.208.208,0,0,1-.144-.06.2.2,0,0,1,0-.287Zm1.36,11.706a.607.607,0,1,1,.607-.607A.608.608,0,0,1,117.226,12.582Zm2.958-1.627H114.4V1.927h5.782Z" transform="translate(-113.692)" fill="#fff"/>
    </g>
  </g>
</svg>
