<svg xmlns="http://www.w3.org/2000/svg" width="15.705" height="14.64" viewBox="0 0 15.705 14.64">
  <g id="television" transform="translate(7 -15.104)">
    <g id="Group_138" data-name="Group 138" transform="translate(-7 15.104)">
      <path id="Path_54" data-name="Path 54" d="M14.261,18.389H8.737l2.8-2.762-.505-.505L8.123,17.974,5.217,15.1l-.505.505,2.8,2.762H1.444A1.448,1.448,0,0,0,0,19.815V28.3a1.448,1.448,0,0,0,1.444,1.444H14.261A1.448,1.448,0,0,0,15.7,28.3V19.815A1.445,1.445,0,0,0,14.261,18.389ZM9.748,26.44a1.086,1.086,0,0,1-1.083,1.083h-5.6A1.086,1.086,0,0,1,1.986,26.44V21.747a1.086,1.086,0,0,1,1.083-1.083h5.6a1.086,1.086,0,0,1,1.083,1.083Zm2.708.65a1.264,1.264,0,1,1,1.264-1.264A1.256,1.256,0,0,1,12.455,27.09ZM13.9,23.426H11.011V22.7H13.9Zm0-1.805H11.011V20.9H13.9Z" transform="translate(0 -15.104)" fill="#fff"/>
    </g>
  </g>
</svg>
