<svg xmlns="http://www.w3.org/2000/svg" width="11.736" height="20.711" viewBox="0 0 11.736 20.711">
  <g id="outline" transform="translate(-120 -16)">
    <path id="Path_72" data-name="Path 72" d="M122.416,36.711h6.9a2.419,2.419,0,0,0,2.416-2.416V27.046a2.073,2.073,0,0,0-2.071-2.071H128.63V21.418a.676.676,0,0,1,.071-.3l.018-.037a.691.691,0,0,1,.538-.369,2.264,2.264,0,0,0,.433-.1l.155-.052a2.258,2.258,0,0,0,1.546-2.145,2.416,2.416,0,0,0-4.833,0v6.559h-1.036V20.487a2.416,2.416,0,0,0-4.833,0,2.258,2.258,0,0,0,1.546,2.145l.155.052a2.263,2.263,0,0,0,.433.1.691.691,0,0,1,.538.369l.016.032a3.233,3.233,0,0,1,.073.651v1.14h-1.381A2.072,2.072,0,0,0,120,27.046v7.249A2.419,2.419,0,0,0,122.416,36.711Zm7.249-11.046a1.381,1.381,0,1,1,.036,2.761l.2-.3a1.14,1.14,0,0,0-.949-1.772h-.338a.865.865,0,0,0,.017-.173v-.518Zm-2.416-7.249a1.726,1.726,0,1,1,3.452,0,1.568,1.568,0,0,1-1.074,1.49l-.155.052a1.568,1.568,0,0,1-.3.068,1.38,1.38,0,0,0-1.07.745l-.018.037a1.371,1.371,0,0,0-.144.61v3.557h-.69Zm0,7.249h.69v.518a.173.173,0,0,1-.173.173h-.345a.173.173,0,0,1-.173-.173Zm-1.726,0h1.036v.518a.865.865,0,0,0,.017.173h-1.053Zm0,1.381h3.428a.45.45,0,0,1,.374.7l-.321.481a.45.45,0,0,1-.374.2h-3.124C125.517,28.371,125.523,27.046,125.523,27.046ZM122.91,22.1a1.571,1.571,0,0,1-.3-.068l-.155-.052a1.569,1.569,0,0,1-1.074-1.49,1.726,1.726,0,0,1,3.452,0v6.559h-.69V23.834A3.265,3.265,0,0,0,124,22.88l-.018-.037A1.38,1.38,0,0,0,122.91,22.1Zm1.922,5.639v.518a.173.173,0,0,1-.173.173h-.345a.173.173,0,0,1-.173-.173v-.518Zm-1.363.69h-.362a.449.449,0,0,1-.374-.2l-.32-.481a.45.45,0,0,1,.374-.7h.666S123.458,28.371,123.469,28.427Zm-2.374-2.357a1.372,1.372,0,0,1,.976-.4h1.381v.69h-.666a1.14,1.14,0,0,0-.949,1.772l.2.3a1.38,1.38,0,0,1-.941-2.356Zm-.4,2.518a2.063,2.063,0,0,0,1.381.529h7.594a2.056,2.056,0,0,0,1.381-.528v5.706a1.728,1.728,0,0,1-1.726,1.726h-6.9a1.728,1.728,0,0,1-1.726-1.726Z"/>
    <ellipse id="Ellipse_14" data-name="Ellipse 14" cy="0.5" ry="0.5" transform="translate(129.304 17.292)"/>
    <path id="Path_73" data-name="Path 73" d="M304.345,57.381a.345.345,0,0,0,.345-.345v-.69a.345.345,0,1,0-.69,0v.69A.345.345,0,0,0,304.345,57.381Z" transform="translate(-176.061 -38.274)"/>
    <circle id="Ellipse_15" data-name="Ellipse 15" cx="0.5" cy="0.5" r="0.5" transform="translate(122.304 19.292)"/>
    <path id="Path_74" data-name="Path 74" d="M200.69,105.036v-.69a.345.345,0,0,0-.69,0v.69a.345.345,0,0,0,.69,0Z" transform="translate(-76.548 -84.203)"/>
    <path id="Path_75" data-name="Path 75" d="M202.83,353.559l.488-.488a3.522,3.522,0,0,0-4.976,0l.488.488A2.831,2.831,0,0,1,202.83,353.559Z" transform="translate(-74.963 -321.542)"/>
    <path id="Path_76" data-name="Path 76" d="M218.343,380.961l.488.488a1.607,1.607,0,0,1,2.273,0l.488-.488a2.3,2.3,0,0,0-3.25,0Z" transform="translate(-94.1 -348.57)"/>
    <path id="Path_77" data-name="Path 77" d="M239.029,409.842l.488.488a.345.345,0,0,1,.488,0l.488-.488A1.036,1.036,0,0,0,239.029,409.842Z" transform="translate(-113.893 -376.559)"/>
    <path id="Path_78" data-name="Path 78" d="M324.345,379.8a1.21,1.21,0,0,0,1.208-1.208v-2.244a.345.345,0,0,0-.69,0v2.244a.518.518,0,0,1-.518.518.345.345,0,1,0,0,.69Z" transform="translate(-195.198 -344.467)"/>
    <path id="Path_79" data-name="Path 79" d="M344.345,337.036a.345.345,0,0,0,.345-.345v-.345a.345.345,0,1,0-.69,0v.345A.345.345,0,0,0,344.345,337.036Z" transform="translate(-214.335 -306.193)"/>
  </g>
</svg>
