<svg xmlns="http://www.w3.org/2000/svg" width="12.18" height="16.279" viewBox="0 0 12.18 16.279">
  <g id="webcam" transform="translate(-9.051 -2)">
    <circle id="Ellipse_12" data-name="Ellipse 12" cx="1.744" cy="1.744" r="1.744" transform="translate(13.397 6.36)" fill="#fff"/>
    <path id="Path_55" data-name="Path 55" d="M22.907,18.814A2.907,2.907,0,1,0,20,15.907,2.907,2.907,0,0,0,22.907,18.814Zm0-5.232a2.326,2.326,0,1,1-2.326,2.326A2.326,2.326,0,0,1,22.907,13.581Z" transform="translate(-7.766 -7.802)" fill="#fff"/>
    <path id="Path_56" data-name="Path 56" d="M15.141,2a6.107,6.107,0,0,0-6.09,5.814h2.616a3.485,3.485,0,0,1,6.948,0h2.616A6.107,6.107,0,0,0,15.141,2Z" fill="#fff"/>
    <circle id="Ellipse_13" data-name="Ellipse 13" cx="0.581" cy="0.581" r="0.581" transform="translate(14.559 15.953)" fill="#fff"/>
    <path id="Path_57" data-name="Path 57" d="M26.439,39.925a3.769,3.769,0,0,0-4.947,0,6.052,6.052,0,0,0,4.947,0Z" transform="translate(-8.825 -26.245)" fill="#fff"/>
    <path id="Path_58" data-name="Path 58" d="M9.051,24a6.1,6.1,0,0,0,3.067,5.006,4.336,4.336,0,0,1,6.045,0A6.1,6.1,0,0,0,21.23,24H18.614a3.485,3.485,0,0,1-6.948,0Z" transform="translate(0 -15.605)" fill="#fff"/>
    <path id="Path_59" data-name="Path 59" d="M22.046,46.36V43.453A1.455,1.455,0,0,0,20.593,42h-.307a6.67,6.67,0,0,1-7.526,0h-.307A1.455,1.455,0,0,0,11,43.453V46.36a.291.291,0,0,0,.291.291H21.756A.291.291,0,0,0,22.046,46.36Zm-5.523-.291a1.163,1.163,0,1,1,1.163-1.163A1.163,1.163,0,0,1,16.523,46.07Z" transform="translate(-1.382 -28.372)" fill="#fff"/>
  </g>
</svg>
